<?xml version="1.0" encoding="UTF-8" standalone="no"?>
<!DOCTYPE svg PUBLIC "-//W3C//DTD SVG 1.1//EN"
 "http://www.w3.org/Graphics/SVG/1.1/DTD/svg11.dtd">
<!-- Generated by graphviz version 14.1.1 (20251213.1925)
 -->
<!-- Title: InheritanceTree Pages: 1 -->
<svg width="396pt" height="285pt"
 viewBox="0.00 0.00 396.00 285.00" xmlns="http://www.w3.org/2000/svg" xmlns:xlink="http://www.w3.org/1999/xlink">
<g id="graph0" class="graph" transform="scale(1 1) rotate(0) translate(4 280.5)">
<title>InheritanceTree</title>
<polygon fill="white" stroke="none" points="-4,4 -4,-280.5 392.25,-280.5 392.25,4 -4,4"/>
<text xml:space="preserve" text-anchor="middle" x="194.12" y="-7.2" font-family="Times New Roman,serif" font-size="14.00">simple_graph &#45; Inheritance Hierarchy</text>
<!-- SIMPLE_GRAPH -->
<g id="node1" class="node">
<title>SIMPLE_GRAPH</title>
<path fill="none" stroke="black" d="M126.62,-60.5C126.62,-60.5 33.38,-60.5 33.38,-60.5 27.38,-60.5 21.38,-54.5 21.38,-48.5 21.38,-48.5 21.38,-36.5 21.38,-36.5 21.38,-30.5 27.38,-24.5 33.38,-24.5 33.38,-24.5 126.62,-24.5 126.62,-24.5 132.62,-24.5 138.62,-30.5 138.62,-36.5 138.62,-36.5 138.62,-48.5 138.62,-48.5 138.62,-54.5 132.62,-60.5 126.62,-60.5"/>
<text xml:space="preserve" text-anchor="middle" x="80" y="-37.45" font-family="Times New Roman,serif" font-size="14.00">SIMPLE_GRAPH</text>
</g>
<!-- SIMPLE_GRAPH_EDGE -->
<g id="node2" class="node">
<title>SIMPLE_GRAPH_EDGE</title>
<path fill="none" stroke="black" d="M148,-132.5C148,-132.5 12,-132.5 12,-132.5 6,-132.5 0,-126.5 0,-120.5 0,-120.5 0,-108.5 0,-108.5 0,-102.5 6,-96.5 12,-96.5 12,-96.5 148,-96.5 148,-96.5 154,-96.5 160,-102.5 160,-108.5 160,-108.5 160,-120.5 160,-120.5 160,-126.5 154,-132.5 148,-132.5"/>
<text xml:space="preserve" text-anchor="middle" x="80" y="-109.45" font-family="Times New Roman,serif" font-size="14.00">SIMPLE_GRAPH_EDGE</text>
</g>
<!-- ANY -->
<g id="node3" class="node">
<title>ANY</title>
<path fill="none" stroke="black" d="M343.12,-132.5C343.12,-132.5 313.12,-132.5 313.12,-132.5 307.12,-132.5 301.12,-126.5 301.12,-120.5 301.12,-120.5 301.12,-108.5 301.12,-108.5 301.12,-102.5 307.12,-96.5 313.12,-96.5 313.12,-96.5 343.12,-96.5 343.12,-96.5 349.12,-96.5 355.12,-102.5 355.12,-108.5 355.12,-108.5 355.12,-120.5 355.12,-120.5 355.12,-126.5 349.12,-132.5 343.12,-132.5"/>
<text xml:space="preserve" text-anchor="middle" x="328.12" y="-109.45" font-family="Times New Roman,serif" font-size="14.00">ANY</text>
</g>
<!-- SIMPLE_GRAPH_EDGE&#45;&gt;ANY -->
<g id="edge1" class="edge">
<title>SIMPLE_GRAPH_EDGE&#45;&gt;ANY</title>
<path fill="none" stroke="black" d="M160.22,-114.5C160.22,-114.5 289.39,-114.5 289.39,-114.5"/>
<polygon fill="none" stroke="black" points="289.39,-118 299.39,-114.5 289.39,-111 289.39,-118"/>
</g>
<!-- LIB_TESTS -->
<g id="node4" class="node">
<title>LIB_TESTS</title>
<path fill="none" stroke="black" d="M110.12,-204.5C110.12,-204.5 49.88,-204.5 49.88,-204.5 43.88,-204.5 37.88,-198.5 37.88,-192.5 37.88,-192.5 37.88,-180.5 37.88,-180.5 37.88,-174.5 43.88,-168.5 49.88,-168.5 49.88,-168.5 110.12,-168.5 110.12,-168.5 116.12,-168.5 122.12,-174.5 122.12,-180.5 122.12,-180.5 122.12,-192.5 122.12,-192.5 122.12,-198.5 116.12,-204.5 110.12,-204.5"/>
<text xml:space="preserve" text-anchor="middle" x="80" y="-181.45" font-family="Times New Roman,serif" font-size="14.00">LIB_TESTS</text>
</g>
<!-- TEST_SET_BASE -->
<g id="node5" class="node">
<title>TEST_SET_BASE</title>
<path fill="none" stroke="black" d="M376.25,-204.5C376.25,-204.5 280,-204.5 280,-204.5 274,-204.5 268,-198.5 268,-192.5 268,-192.5 268,-180.5 268,-180.5 268,-174.5 274,-168.5 280,-168.5 280,-168.5 376.25,-168.5 376.25,-168.5 382.25,-168.5 388.25,-174.5 388.25,-180.5 388.25,-180.5 388.25,-192.5 388.25,-192.5 388.25,-198.5 382.25,-204.5 376.25,-204.5"/>
<text xml:space="preserve" text-anchor="middle" x="328.12" y="-181.45" font-family="Times New Roman,serif" font-size="14.00">TEST_SET_BASE</text>
</g>
<!-- LIB_TESTS&#45;&gt;TEST_SET_BASE -->
<g id="edge2" class="edge">
<title>LIB_TESTS&#45;&gt;TEST_SET_BASE</title>
<path fill="none" stroke="black" d="M122.37,-186.5C122.37,-186.5 256.28,-186.5 256.28,-186.5"/>
<polygon fill="none" stroke="black" points="256.28,-190 266.28,-186.5 256.28,-183 256.28,-190"/>
</g>
<!-- TEST_APP -->
<g id="node6" class="node">
<title>TEST_APP</title>
<path fill="none" stroke="black" d="M107.88,-276.5C107.88,-276.5 52.12,-276.5 52.12,-276.5 46.12,-276.5 40.12,-270.5 40.12,-264.5 40.12,-264.5 40.12,-252.5 40.12,-252.5 40.12,-246.5 46.12,-240.5 52.12,-240.5 52.12,-240.5 107.88,-240.5 107.88,-240.5 113.88,-240.5 119.88,-246.5 119.88,-252.5 119.88,-252.5 119.88,-264.5 119.88,-264.5 119.88,-270.5 113.88,-276.5 107.88,-276.5"/>
<text xml:space="preserve" text-anchor="middle" x="80" y="-253.45" font-family="Times New Roman,serif" font-size="14.00">TEST_APP</text>
</g>
</g>
</svg>
