<?xml version="1.0" encoding="UTF-8" standalone="no"?>
<!DOCTYPE svg PUBLIC "-//W3C//DTD SVG 1.1//EN"
 "http://www.w3.org/Graphics/SVG/1.1/DTD/svg11.dtd">
<!-- Generated by graphviz version 14.1.1 (20251213.1925)
 -->
<!-- Title: Dependencies Pages: 1 -->
<svg width="338pt" height="285pt"
 viewBox="0.00 0.00 338.00 285.00" xmlns="http://www.w3.org/2000/svg" xmlns:xlink="http://www.w3.org/1999/xlink">
<g id="graph0" class="graph" transform="scale(1 1) rotate(0) translate(4 280.5)">
<title>Dependencies</title>
<polygon fill="white" stroke="none" points="-4,4 -4,-280.5 333.75,-280.5 333.75,4 -4,4"/>
<text xml:space="preserve" text-anchor="middle" x="164.88" y="-7.2" font-family="Times New Roman,serif" font-size="14.00">simple_graph &#45; Dependencies</text>
<!-- simple_graph -->
<g id="node1" class="node">
<title>simple_graph</title>
<polygon fill="lightblue" stroke="black" points="90.25,-168.5 0,-168.5 0,-132.5 90.25,-132.5 90.25,-168.5"/>
<text xml:space="preserve" text-anchor="middle" x="45.12" y="-145.45" font-family="Times New Roman,serif" font-size="14.00">simple_graph</text>
</g>
<!-- simple_mml -->
<g id="node2" class="node">
<title>simple_mml</title>
<polygon fill="lightblue" stroke="black" points="324.88,-276.5 239.12,-276.5 239.12,-240.5 324.88,-240.5 324.88,-276.5"/>
<text xml:space="preserve" text-anchor="middle" x="282" y="-253.45" font-family="Times New Roman,serif" font-size="14.00">simple_mml</text>
</g>
<!-- simple_graph&#45;&gt;simple_mml -->
<g id="edge1" class="edge">
<title>simple_graph&#45;&gt;simple_mml</title>
<path fill="none" stroke="black" stroke-dasharray="5,2" d="M44.75,-168.82C44.75,-199.63 44.75,-258.5 44.75,-258.5 44.75,-258.5 227.25,-258.5 227.25,-258.5"/>
<polygon fill="black" stroke="black" points="227.25,-262 237.25,-258.5 227.25,-255 227.25,-262"/>
</g>
<!-- simple_testing -->
<g id="node3" class="node">
<title>simple_testing</title>
<polygon fill="lightblue" stroke="black" points="329.75,-204.5 234.25,-204.5 234.25,-168.5 329.75,-168.5 329.75,-204.5"/>
<text xml:space="preserve" text-anchor="middle" x="282" y="-181.45" font-family="Times New Roman,serif" font-size="14.00">simple_testing</text>
</g>
<!-- simple_graph&#45;&gt;simple_testing -->
<g id="edge2" class="edge">
<title>simple_graph&#45;&gt;simple_testing</title>
<path fill="none" stroke="black" stroke-dasharray="5,2" d="M90.67,-156.5C149.59,-156.5 244.75,-156.5 244.75,-156.5 244.75,-156.5 244.75,-157.65 244.75,-157.65"/>
<polygon fill="black" stroke="black" points="241.25,-156.5 244.75,-166.5 248.25,-156.5 241.25,-156.5"/>
</g>
<!-- base -->
<g id="node4" class="node">
<title>base</title>
<polygon fill="lightgray" stroke="black" points="309,-132.5 255,-132.5 255,-96.5 309,-96.5 309,-132.5"/>
<text xml:space="preserve" text-anchor="middle" x="282" y="-109.45" font-family="Times New Roman,serif" font-size="14.00">base</text>
</g>
<!-- simple_graph&#45;&gt;base -->
<g id="edge3" class="edge">
<title>simple_graph&#45;&gt;base</title>
<path fill="none" stroke="black" stroke-dasharray="5,2" d="M90.75,-144.5C159.51,-144.5 281.75,-144.5 281.75,-144.5 281.75,-144.5 281.75,-143.35 281.75,-143.35"/>
<polygon fill="black" stroke="black" points="285.25,-144.5 281.75,-134.5 278.25,-144.5 285.25,-144.5"/>
</g>
<!-- testing -->
<g id="node5" class="node">
<title>testing</title>
<polygon fill="lightgray" stroke="black" points="309,-60.5 255,-60.5 255,-24.5 309,-24.5 309,-60.5"/>
<text xml:space="preserve" text-anchor="middle" x="282" y="-37.45" font-family="Times New Roman,serif" font-size="14.00">testing</text>
</g>
<!-- simple_graph&#45;&gt;testing -->
<g id="edge4" class="edge">
<title>simple_graph&#45;&gt;testing</title>
<path fill="none" stroke="black" stroke-dasharray="5,2" d="M44.75,-132.18C44.75,-101.37 44.75,-42.5 44.75,-42.5 44.75,-42.5 243.27,-42.5 243.27,-42.5"/>
<polygon fill="black" stroke="black" points="243.27,-46 253.27,-42.5 243.27,-39 243.27,-46"/>
</g>
</g>
</svg>
